<svg width="24" height="24" viewBox="0 0 24 24" fill="none" xmlns="http://www.w3.org/2000/svg">
<path fill-rule="evenodd" clip-rule="evenodd" d="M15.1068 12.0104L10.0068 9.11222V14.9086L15.1068 12.0104ZM21.3425 7.29079C21.7497 8.82294 21.7497 12.0158 21.7497 12.0158C21.7497 12.0158 21.7497 15.2087 21.3425 16.7354C21.1175 17.5819 20.4586 18.2194 19.6175 18.4444C18.1014 18.8569 11.9996 18.8569 11.9996 18.8569C11.9996 18.8569 5.89785 18.8569 4.38178 18.4497C3.54071 18.2247 2.88178 17.5872 2.65678 16.7408C2.24963 15.2087 2.24963 12.0158 2.24963 12.0158C2.24963 12.0158 2.24963 8.81758 2.65678 7.29079C2.88178 6.44436 3.54071 5.78008 4.38178 5.55508C5.89785 5.14258 11.9996 5.14258 11.9996 5.14258C11.9996 5.14258 18.1014 5.14258 19.6175 5.55508C20.4586 5.78008 21.1175 6.44436 21.3425 7.29079Z" fill="black"/>
</svg>
