<svg width="24" height="24" viewBox="0 0 24 24" fill="none" xmlns="http://www.w3.org/2000/svg">
<path d="M2.50049 7.625L10.2572 12.626C10.8853 13.031 11.1993 13.2335 11.5409 13.3119C11.8427 13.3812 12.1583 13.3812 12.46 13.3119C12.8016 13.2335 13.1157 13.031 13.7438 12.626L21.5005 7.625M7.06049 19H16.9405C18.5366 19 19.3347 19 19.9444 18.7139C20.4806 18.4622 20.9166 18.0607 21.1899 17.5667C21.5005 17.0052 21.5005 16.2701 21.5005 14.8V9.2C21.5005 7.72986 21.5005 6.99479 21.1899 6.43327C20.9166 5.93935 20.4806 5.53778 19.9444 5.28611C19.3347 5 18.5366 5 16.9405 5H7.06049C5.46434 5 4.66626 5 4.05662 5.28611C3.52035 5.53778 3.08436 5.93935 2.81112 6.43327C2.50049 6.99479 2.50049 7.72986 2.50049 9.2V14.8C2.50049 16.2701 2.50049 17.0052 2.81112 17.5667C3.08436 18.0607 3.52035 18.4622 4.05662 18.7139C4.66626 19 5.46434 19 7.06049 19Z" stroke="black" stroke-width="1.5" stroke-linecap="round" stroke-linejoin="round"/>
</svg>
