<svg width="24" height="24" viewBox="0 0 24 24" fill="none" xmlns="http://www.w3.org/2000/svg">
<path d="M12.0008 3C9.55657 3 9.24982 3.01069 8.28981 3.05438C7.33167 3.09825 6.67766 3.24994 6.10541 3.4725C5.51346 3.70238 5.01133 4.00988 4.51108 4.51031C4.01045 5.01056 3.70294 5.51269 3.47232 6.10444C3.24919 6.67687 3.09731 7.33106 3.05419 8.28881C3.01125 9.24881 3 9.55575 3 12C3 14.4443 3.01088 14.7501 3.05438 15.7101C3.09844 16.6682 3.25013 17.3222 3.47251 17.8944C3.70257 18.4864 4.01007 18.9885 4.51052 19.4888C5.01058 19.9894 5.51271 20.2976 6.10428 20.5275C6.67691 20.7501 7.33111 20.9018 8.28905 20.9456C9.24906 20.9893 9.55563 21 11.9997 21C14.4442 21 14.75 20.9893 15.71 20.9456C16.6681 20.9018 17.3229 20.7501 17.8955 20.5275C18.4873 20.2976 18.9887 19.9894 19.4887 19.4888C19.9894 18.9885 20.2969 18.4864 20.5275 17.8946C20.7487 17.3222 20.9006 16.668 20.9456 15.7103C20.9888 14.7503 21 14.4443 21 12C21 9.55575 20.9888 9.249 20.9456 8.289C20.9006 7.33087 20.7487 6.67687 20.5275 6.10462C20.2969 5.51269 19.9894 5.01056 19.4887 4.51031C18.9881 4.00969 18.4875 3.70219 17.895 3.4725C17.3212 3.24994 16.6668 3.09825 15.7087 3.05438C14.7487 3.01069 14.4431 3 11.998 3H12.0008ZM11.1935 4.62187C11.4331 4.6215 11.7005 4.62187 12.0008 4.62187C14.4039 4.62187 14.6887 4.6305 15.6376 4.67363C16.5151 4.71375 16.9914 4.86038 17.3086 4.98356C17.7287 5.14669 18.0281 5.34169 18.3429 5.65669C18.6579 5.97169 18.8529 6.27169 19.0164 6.69169C19.1396 7.00856 19.2864 7.48481 19.3264 8.36231C19.3695 9.31106 19.3789 9.59606 19.3789 11.9979C19.3789 14.3998 19.3695 14.6848 19.3264 15.6336C19.2862 16.5111 19.1396 16.9873 19.0164 17.3042C18.8533 17.7242 18.6579 18.0233 18.3429 18.3381C18.0279 18.6531 17.7288 18.8481 17.3086 19.0112C16.9918 19.1349 16.5151 19.2812 15.6376 19.3213C14.6889 19.3644 14.4039 19.3738 12.0008 19.3738C9.59763 19.3738 9.31282 19.3644 8.36406 19.3213C7.48655 19.2808 7.01029 19.1342 6.69285 19.011C6.27285 18.8479 5.97284 18.6529 5.65784 18.3379C5.34284 18.0229 5.14783 17.7236 4.98433 17.3034C4.86114 16.9866 4.71433 16.5103 4.67439 15.6328C4.63127 14.6841 4.62264 14.3991 4.62264 11.9957C4.62264 9.59231 4.63127 9.30881 4.67439 8.36006C4.71452 7.48256 4.86114 7.00631 4.98433 6.68906C5.14746 6.26906 5.34284 5.96906 5.65784 5.65406C5.97284 5.33906 6.27285 5.14406 6.69285 4.98056C7.0101 4.85681 7.48655 4.71056 8.36406 4.67025C9.19431 4.63275 9.51607 4.6215 11.1935 4.61963V4.62187ZM16.805 6.11625C16.2088 6.11625 15.725 6.59944 15.725 7.19587C15.725 7.79212 16.2088 8.27588 16.805 8.27588C17.4013 8.27588 17.885 7.79212 17.885 7.19587C17.885 6.59962 17.4013 6.11588 16.805 6.11588V6.11625ZM12.0008 7.37812C9.44838 7.37812 7.37892 9.44756 7.37892 12C7.37892 14.5524 9.44838 16.6209 12.0008 16.6209C14.5533 16.6209 16.622 14.5524 16.622 12C16.622 9.44756 14.5533 7.37812 12.0008 7.37812ZM12.0008 9C13.6576 9 15.0009 10.3431 15.0009 12C15.0009 13.6567 13.6576 15 12.0008 15C10.3439 15 9.00081 13.6567 9.00081 12C9.00081 10.3431 10.3439 9 12.0008 9Z" fill="black"/>
</svg>
