<svg width="130" height="58" viewBox="0 0 130 58" fill="none" xmlns="http://www.w3.org/2000/svg">
<g clip-path="url(#clip0_761_8854)">
<path fill-rule="evenodd" clip-rule="evenodd" d="M10.2219 29.228C10.2219 39.7233 18.7326 48.2341 29.228 48.2341C39.7233 48.2341 48.234 39.7233 48.234 29.228C48.234 18.7326 39.7233 10.2219 29.228 10.2219C18.7326 10.2219 10.2219 18.7326 10.2219 29.228ZM27.3427 24.5531L34.6003 29.6741L27.3427 34.7877V24.5531Z" fill="black"/>
<path d="M89.4226 13.5781V21.3069H96.5164V13.5781H89.4226Z" fill="black"/>
<path d="M87.1222 43.2067V30.9607H99.0038V43.2067H87.1222Z" fill="black"/>
<path fill-rule="evenodd" clip-rule="evenodd" d="M130 0H0V58H130V0ZM4 29.228C4 15.2921 15.2921 4 29.228 4C43.1638 4 54.4559 15.2921 54.4559 29.228C54.4559 43.1638 43.1638 54.4559 29.228 54.4559C15.2921 54.4559 4 43.1638 4 29.228ZM60.7427 10.7003V19.0258H69.6215V20.9989H60.7427V24.175H72.3592V15.8496H63.4803V13.8765H72.3592V10.7003H60.7427ZM73.6994 24.175V10.7003H85.3159V13.8765H76.7515V15.8496H85.3159V19.0258H76.7515V20.9989H85.3159V24.175H73.6994ZM117.634 10.7003H114.572V24.175H126.993V20.9989H117.634V10.7003ZM86.6664 24.175V10.7003H99.2726V24.175H86.6664ZM110.177 20.9989H103.675V10.7003H100.623V20.9989C100.623 22.7506 101.992 24.175 103.675 24.175H113.229V10.7003H110.177V20.9989ZM80.2525 26.4208V31.452L80.2433 31.4429H65.8559V42.7154H80.2433V47.7467H63.2946C61.8892 47.7467 60.7426 46.6276 60.7426 45.2356V28.3132C60.7426 27.2669 61.6026 26.4208 62.6659 26.4208H80.2525ZM82.5083 26.4208V47.7467H103.627V26.4208H82.5083ZM110.988 47.7558H110.461V47.7467H105.875V26.4208H121.88C124.71 26.4208 126.993 28.6771 126.993 31.452V47.7558H121.88V31.452H110.988V47.7558Z" fill="black"/>
</g>
<defs>
<clipPath id="clip0_761_8854">
<rect width="130" height="58" fill="white"/>
</clipPath>
</defs>
</svg>
