<svg width="87" height="54" viewBox="0 0 87 54" fill="none" xmlns="http://www.w3.org/2000/svg">
<rect width="86.9999" height="53.0674" transform="translate(0 0.466309)" fill="black"/>
<path d="M15.9483 15.1425V14.5139H15.3197H5.62892V6.09498H17.8728V8.52914H8.18207H7.5534V9.15781V11.451V12.0797H8.18207H17.8728V20.4986H5.62892V18.0644H15.3197H15.9483V17.4357V15.1425ZM22.9778 17.4357V18.0644H23.6064H32.9317V20.4986H20.6878V6.09498H32.9317V8.52914H23.6064H22.9778V9.15781V11.451V12.0797H23.6064H32.9317V14.5139H23.6064H22.9778V15.1425V17.4357ZM70.4928 17.4357V18.0644H71.1215H81.3712V20.4986H68.1921V6.09498H70.4928V17.4357ZM37.7047 17.7937V18.4224H38.3333H46.5781H47.2068V17.7937V8.81103V8.18236H46.5781H38.3333H37.7047V8.81103V17.7937ZM62.4554 18.0644H63.084V17.4357V6.09498H65.374V20.4986H54.8985C53.3127 20.4986 51.9799 19.1483 51.9799 17.4357V6.09498H54.2699V17.4357V18.0644H54.8985H62.4554ZM35.7587 20.4986V6.09498H49.1528V20.4986H35.7587Z" fill="white" stroke="white" stroke-width="1.25734"/>
<path d="M27.6753 29.5847V23.7372H7.23529C5.99943 23.7372 5 24.7206 5 25.9366V45.6046C5 47.2225 6.33258 48.5231 7.96606 48.5231H27.6645V42.6756H10.9429V29.5741H27.6645L27.6753 29.5847Z" fill="#FF0E14"/>
<path d="M30.297 23.7372V48.5231H54.8422V23.7372H30.297ZM35.6595 43.2466V29.0137H49.4689V43.2466H35.6595Z" fill="#FF0E14"/>
<path d="M62.7847 48.5337H63.3973V29.5847H76.0568V48.5337H81.9996V29.5847C81.9996 26.3596 79.3452 23.7372 76.0568 23.7372H57.4544V48.5231H62.7847V48.5337Z" fill="#FF0E14"/>
</svg>
