<svg width="74" height="38" viewBox="0 0 74 38" fill="none" xmlns="http://www.w3.org/2000/svg">
<path d="M32.214 16.364V8.928H34.942V29.476H32.214V18.916H30.168V28.992H27.506V9.258H30.168V16.364H32.214ZM20.334 23.646H21.126C22.512 23.646 24.118 23.558 26.032 23.294L26.296 25.758C24.382 26.132 22.688 26.22 20.774 26.22H17.474V10.336H20.334V23.646ZM51.5353 16.342V18.322H56.5293V20.698H37.1693V18.322H42.1633V16.342C40.4033 15.792 39.3253 14.626 39.3253 12.888C39.3253 10.336 41.6793 9.104 45.0673 9.104H48.6533C52.0193 9.104 54.3953 10.336 54.3953 12.888C54.3953 14.648 53.2953 15.792 51.5353 16.342ZM42.1193 12.91C42.1193 13.922 43.3733 14.428 45.5953 14.428H48.1253C50.3253 14.428 51.5793 13.922 51.5793 12.91C51.5793 11.92 50.3253 11.436 48.1253 11.436H45.5953C43.3733 11.436 42.1193 11.92 42.1193 12.91ZM44.8033 16.738V18.322H48.8953V16.738H44.8033ZM44.4073 22.084H49.2913C52.5913 22.084 54.5053 23.712 54.5053 25.89C54.5053 28.09 52.5913 29.696 49.2913 29.696H44.4073C41.1293 29.696 39.2153 28.09 39.2153 25.89C39.2153 23.712 41.1293 22.084 44.4073 22.084ZM44.9353 27.254H48.7853C50.8313 27.254 51.6893 26.726 51.6893 25.868C51.6893 25.01 50.8313 24.504 48.7853 24.504H44.9353C42.8893 24.504 42.0093 25.01 42.0093 25.868C42.0093 26.726 42.8893 27.254 44.9353 27.254Z" fill="white"/>
<rect x="0.5" y="0.5" width="73" height="37" rx="18.5" stroke="url(#paint0_linear_546_8646)"/>
<defs>
<linearGradient id="paint0_linear_546_8646" x1="37" y1="0" x2="37" y2="38" gradientUnits="userSpaceOnUse">
<stop stop-color="#BFFF6A"/>
<stop offset="1" stop-color="white" stop-opacity="0"/>
</linearGradient>
</defs>
</svg>
