<svg width="74" height="38" viewBox="0 0 74 38" fill="none" xmlns="http://www.w3.org/2000/svg">
<path d="M24.47 10.468H28.804V12.69H17.32V10.468H21.632V8.708H24.47V10.468ZM31.752 13.35V8.928H34.568V20.302H31.752V19.246H28.782V17.068H31.752V15.506H28.782V13.35H31.752ZM28.012 16.87V17.068C28.012 19.356 25.834 20.456 23.084 20.456C20.312 20.456 18.156 19.356 18.156 17.068V16.87C18.156 14.56 20.312 13.46 23.084 13.46C25.834 13.46 28.012 14.56 28.012 16.87ZM20.796 16.892V17.046C20.796 17.772 21.786 18.234 23.084 18.234C24.382 18.234 25.35 17.772 25.35 17.046V16.892C25.35 16.144 24.382 15.682 23.084 15.682C21.786 15.682 20.796 16.144 20.796 16.892ZM23.414 22.964H31.752V21.204H34.568V29.476H20.598V21.204H23.414V22.964ZM23.414 25.384V27.034H31.752V25.384H23.414ZM52.1733 11.304V8.95H54.9893V20.874H52.1733V17.53H49.2253V15.374H52.1733V13.46H49.2253V11.304H52.1733ZM48.8733 17.464L49.1813 19.796C47.2013 20.17 44.8693 20.412 42.1193 20.412H38.1813V13.856H44.8473V12.206H38.1813V9.808H47.5753V16.232H40.9093V17.992H42.6253C44.6933 17.992 46.8273 17.794 48.8733 17.464ZM52.1733 24.548H40.8213V21.996H54.9893V29.696H52.1733V24.548Z" fill="white"/>
<rect x="0.5" y="0.5" width="73" height="37" rx="18.5" stroke="url(#paint0_linear_546_8692)"/>
<defs>
<linearGradient id="paint0_linear_546_8692" x1="37" y1="0" x2="37" y2="38" gradientUnits="userSpaceOnUse">
<stop stop-color="#BFFF6A"/>
<stop offset="1" stop-color="white" stop-opacity="0"/>
</linearGradient>
</defs>
</svg>
