<svg width="52" height="27" viewBox="0 0 52 27" fill="none" xmlns="http://www.w3.org/2000/svg">
<rect x="1" y="1" width="50" height="25" rx="12.5" fill="black" fill-opacity="0.3"/>
<path d="M24.3161 13.364H22.7321V6.116H24.3161V13.364ZM16.1561 13.028C13.9161 13.028 12.1721 11.956 12.1721 9.812V9.572C12.1721 7.412 13.9161 6.356 16.1561 6.356C18.3641 6.356 20.1241 7.412 20.1241 9.572V9.812C20.1241 11.956 18.3641 13.028 16.1561 13.028ZM16.1561 11.62C17.5161 11.62 18.5241 10.996 18.5241 9.78V9.604C18.5241 8.388 17.5161 7.764 16.1561 7.764C14.7801 7.764 13.7721 8.388 13.7721 9.604V9.78C13.7721 10.996 14.7801 11.62 16.1561 11.62ZM24.8761 21.044H14.5081V16.964H22.7321V15.62H14.4281V14.292H24.3161V18.276H16.1081V19.684H24.8761V21.044ZM34.672 10.708V9.332H37.568V6.116H39.168V14.212H37.568V10.708H34.672ZM34.976 14.132L30.944 11.476C30.192 12.548 28.992 13.492 27.36 14.372L26.608 13.092C29.168 11.652 30.4 10.212 30.4 8.244H27.2V6.82H35.2V8.244H31.952C31.952 8.948 31.84 9.588 31.616 10.196L35.776 12.82L34.976 14.132ZM32.576 14.996H35.808C37.984 14.996 39.36 16.276 39.36 18.052C39.36 19.844 37.984 21.124 35.808 21.124H32.576C30.416 21.124 29.04 19.844 29.04 18.052C29.04 16.276 30.416 14.996 32.576 14.996ZM32.832 19.684H35.568C37.04 19.684 37.76 18.996 37.76 18.052C37.76 17.108 37.04 16.42 35.568 16.42H32.832C31.36 16.42 30.624 17.108 30.624 18.052C30.624 18.996 31.36 19.684 32.832 19.684Z" fill="white"/>
<rect x="1" y="1" width="50" height="25" rx="12.5" stroke="url(#paint0_linear_1538_1050)"/>
<defs>
<linearGradient id="paint0_linear_1538_1050" x1="26" y1="0.5" x2="26" y2="26.5" gradientUnits="userSpaceOnUse">
<stop stop-color="#BFFF6A"/>
<stop offset="1" stop-color="white" stop-opacity="0"/>
</linearGradient>
</defs>
</svg>
