<svg width="52" height="27" viewBox="0 0 52 27" fill="none" xmlns="http://www.w3.org/2000/svg">
<rect x="1" y="1" width="50" height="25" rx="12.5" fill="black" fill-opacity="0.3"/>
<path d="M23.4841 6.116V9.22H25.7721V10.676H23.4841V14.212H21.8841V6.116H23.4841ZM19.5961 14.052L15.6441 11.444C14.8921 12.532 13.7081 13.492 12.0601 14.372L11.3081 13.092C13.8521 11.668 15.0681 10.196 15.0681 8.244H11.8841V6.82H19.8201V8.244H16.6201C16.6201 8.916 16.5081 9.556 16.3001 10.148L20.3961 12.756L19.5961 14.052ZM17.1641 14.996H20.3001C22.4601 14.996 23.8201 16.276 23.8201 18.052C23.8201 19.844 22.4601 21.124 20.3001 21.124H17.1641C15.0361 21.124 13.6601 19.844 13.6601 18.052C13.6601 16.276 15.0361 14.996 17.1641 14.996ZM17.4361 19.684H20.0441C21.5001 19.684 22.2361 18.996 22.2361 18.052C22.2361 17.108 21.5001 16.42 20.0441 16.42H17.4361C15.9801 16.42 15.2441 17.108 15.2441 18.052C15.2441 18.996 15.9801 19.684 17.4361 19.684ZM38.816 15.22L33.12 11.46C32.112 12.82 30.416 14.084 27.888 15.22L27.168 13.844C31.088 12.036 32.704 10.132 32.704 8.004V6.884H34.304V8.004C34.304 8.74 34.176 9.444 33.888 10.132L39.68 13.892L38.816 15.22ZM34.224 14.756V18.388H40.4V19.844H26.448V18.388H32.64V14.756H34.224Z" fill="white"/>
<rect x="1" y="1" width="50" height="25" rx="12.5" stroke="url(#paint0_linear_1538_1054)"/>
<defs>
<linearGradient id="paint0_linear_1538_1054" x1="26" y1="0.5" x2="26" y2="26.5" gradientUnits="userSpaceOnUse">
<stop stop-color="#BFFF6A"/>
<stop offset="1" stop-color="white" stop-opacity="0"/>
</linearGradient>
</defs>
</svg>
