<svg width="529" height="500" viewBox="0 0 529 500" fill="none" xmlns="http://www.w3.org/2000/svg">
<path fill-rule="evenodd" clip-rule="evenodd" d="M264.467 125.625L187.1 13.3936L190.888 149.396L62.0033 103.8L145.444 211.588L14.2334 250.011L145.445 288.433L62.0033 396.202L190.888 350.626L187.1 486.608L264.467 374.397L341.811 486.605L338.024 350.626L466.927 396.202L383.466 288.433L514.678 250.011L383.467 211.588L466.927 103.8L338.024 149.395L341.811 13.3966L264.467 125.625ZM346.186 0L342.185 143.681L478.419 95.4926L390.221 209.398L528.912 250.011L390.221 290.623L478.419 404.507L342.185 356.34L346.186 500L264.466 381.444L182.726 500L186.727 356.34L50.5137 404.507L138.69 290.623L0 250.011L138.69 209.398L50.5137 95.4926L186.727 143.681L182.726 0L264.466 118.577L346.186 0Z" fill="#FF0E14"/>
</svg>
