<svg width="400" height="400" viewBox="0 0 400 400" fill="none" xmlns="http://www.w3.org/2000/svg">
<path fill-rule="evenodd" clip-rule="evenodd" d="M378.735 151.599L378.736 151.597C389.694 131.206 378.212 105.96 355.838 100.982C337.498 96.8968 324.02 81.1885 322.614 62.3518L322.614 62.3506C320.893 39.2147 297.73 24.265 276.255 32.2643C258.635 38.8305 238.842 32.9504 227.555 17.8562L227.554 17.8552C213.75 -0.618397 186.25 -0.618397 172.446 17.8552L172.445 17.8562C161.159 32.9502 141.365 38.8304 123.745 32.2645C102.268 24.2639 79.0925 39.2168 77.3865 62.3481C75.9975 81.1907 62.5 96.8972 44.1632 100.981C21.7893 105.96 10.3064 131.206 21.2641 151.597C30.1956 168.208 27.2589 188.766 14.0405 202.166C-2.14833 218.594 1.78986 246.103 21.8914 257.258C38.3357 266.386 46.8818 285.281 42.95 303.741C38.1245 326.421 56.2075 347.371 79.0472 345.792C97.7912 344.497 115.131 355.753 121.735 373.437C129.829 395.12 156.228 402.897 174.616 389.116C189.676 377.815 210.309 377.816 225.382 389.114C243.769 402.896 270.154 395.123 278.265 373.437C284.869 355.753 302.209 344.496 320.953 345.792C343.789 347.371 361.861 326.423 357.05 303.738C353.136 285.282 361.679 266.388 378.107 257.259L378.109 257.258C398.21 246.103 402.15 218.61 385.958 202.164C372.74 188.747 369.822 168.207 378.735 151.599ZM388.807 199.357C376.825 187.193 374.173 168.559 382.259 153.491C394.455 130.796 381.703 102.639 356.706 97.0771C340.108 93.38 327.88 79.1529 326.603 62.0539C324.687 36.3064 298.873 19.5705 274.858 28.5161C258.914 34.4579 240.99 29.1434 230.759 15.4609C215.355 -5.15362 184.645 -5.15362 169.242 15.4609C159.01 29.1434 141.086 34.4579 125.142 28.5161C101.127 19.5705 75.2963 36.3064 73.3974 62.0539C72.1369 79.1529 59.8924 93.38 43.2936 97.0771C18.2972 102.639 5.54528 130.796 17.7407 153.491C25.8436 168.559 23.1754 187.21 11.1928 199.357C-6.84653 217.661 -2.47588 248.311 19.9505 260.755C34.8469 269.024 42.6061 286.156 39.0375 302.908C33.6683 328.144 53.7866 351.548 79.3232 349.782C96.2821 348.61 111.997 358.794 117.988 374.836C127.008 398.999 156.473 407.714 177.017 392.315C190.653 382.082 209.331 382.082 222.983 392.315C243.527 407.714 272.976 398.999 282.012 374.836C288.003 358.794 303.718 348.61 320.677 349.782C346.214 351.548 366.315 328.144 360.963 302.908C357.41 286.156 365.169 269.024 380.049 260.755C402.476 248.311 406.847 217.678 388.807 199.357Z" fill="#52F3FF"/>
</svg>
