<svg width="946" height="758" viewBox="0 0 946 758" fill="none" xmlns="http://www.w3.org/2000/svg">
<path opacity="0.1" d="M465 88C360.632 88 276 172.632 276 277C276 381.368 360.632 466 465 466C569.368 466 654 381.368 654 277C654 172.632 569.368 88 465 88ZM465 419.396C386.363 419.396 322.605 355.637 322.605 277C322.605 198.363 386.363 134.605 465 134.605C543.637 134.605 607.396 198.363 607.396 277C607.396 355.637 543.637 419.396 465 419.396Z" fill="black"/>
<path opacity="0.08" d="M465 -43C288.292 -43 145 100.292 145 277C145 453.708 288.292 597 465 597C641.708 597 785 453.708 785 277C785 100.292 641.708 -43 465 -43ZM465 518.093C331.858 518.093 223.907 410.142 223.907 277C223.907 143.858 331.858 35.9072 465 35.9072C598.142 35.9072 706.093 143.858 706.093 277C706.093 410.142 598.142 518.093 465 518.093Z" fill="black"/>
<path opacity="0.04" d="M465 -204C199.386 -204 -16 11.3864 -16 277C-16 542.614 199.386 758 465 758C730.614 758 946 542.614 946 277C946 11.3864 730.614 -204 465 -204ZM465 639.393C264.871 639.393 102.608 477.129 102.608 277C102.608 76.8711 264.871 -85.3926 465 -85.3926C665.129 -85.3926 827.393 76.8711 827.393 277C827.393 477.129 665.129 639.393 465 639.393Z" fill="black"/>
<g filter="url(#filter0_d_734_26361)">
<path d="M585 160H345V529.969H585V160Z" fill="black"/>
<path d="M354.895 396.089V422.607H384.357V428.89H354.895V439.033H393.436V412.49H363.999V406.206H393.436V396.089H354.895Z" fill="white"/>
<path d="M397.888 396.089V439.033H436.429V428.89H408.03V422.607H436.429V412.49H408.03V406.206H436.429V396.089H397.888Z" fill="white"/>
<path d="M543.566 428.89V396.089H533.449V439.033H574.636V428.89H543.566Z" fill="white"/>
<path d="M440.881 396.089V439.033H482.712V396.089H440.881ZM450.034 405.242H473.559V429.88H450.034V405.242Z" fill="white"/>
<path d="M519.917 396.088H518.878V428.89H497.307V396.088H487.19V428.89C487.19 434.48 491.716 439.007 497.307 439.007H528.995V396.063H519.917V396.088Z" fill="white"/>
<path d="M465.001 167.863C406.003 167.863 358.161 215.705 358.161 274.703C358.161 333.701 406.003 381.543 465.001 381.543C523.999 381.543 571.841 333.701 571.841 274.703C571.841 215.705 523.999 167.863 465.001 167.863ZM465.001 355.198C420.548 355.198 384.506 319.156 384.506 274.703C384.506 230.25 420.548 194.208 465.001 194.208C509.454 194.208 545.496 230.25 545.496 274.703C545.496 319.156 509.454 355.198 465.001 355.198Z" fill="#FF0E14"/>
<path d="M419.608 445.76H361.277C357.765 445.76 354.895 448.605 354.895 452.142V509.211C354.895 513.886 358.705 517.696 363.38 517.696H419.608V500.751H371.865V462.755H419.608V445.76Z" fill="#FF0E14"/>
<path d="M427.078 445.76V517.671H497.134V445.76H427.078ZM442.391 461.072H481.797V502.359H442.391V461.072Z" fill="#FF0E14"/>
<path d="M519.818 517.671H521.55V462.705H557.691V517.671H574.636V462.705C574.636 453.33 567.041 445.735 557.691 445.735H504.605V517.646H519.818V517.671Z" fill="#FF0E14"/>
<path d="M488.946 277.276L458.198 255.606V298.946L488.946 277.276Z" fill="white"/>
</g>
<defs>
<filter id="filter0_d_734_26361" x="345" y="160" width="320" height="449.969" filterUnits="userSpaceOnUse" color-interpolation-filters="sRGB">
<feFlood flood-opacity="0" result="BackgroundImageFix"/>
<feColorMatrix in="SourceAlpha" type="matrix" values="0 0 0 0 0 0 0 0 0 0 0 0 0 0 0 0 0 0 127 0" result="hardAlpha"/>
<feOffset dx="40" dy="40"/>
<feGaussianBlur stdDeviation="20"/>
<feComposite in2="hardAlpha" operator="out"/>
<feColorMatrix type="matrix" values="0 0 0 0 0 0 0 0 0 0 0 0 0 0 0 0 0 0 0.52 0"/>
<feBlend mode="normal" in2="BackgroundImageFix" result="effect1_dropShadow_734_26361"/>
<feBlend mode="normal" in="SourceGraphic" in2="effect1_dropShadow_734_26361" result="shape"/>
</filter>
</defs>
</svg>
